<svg width="24" height="24" viewBox="0 0 24 24" fill="none" xmlns="http://www.w3.org/2000/svg">
<path d="M23.9929 12C23.9929 5.37258 18.6219 0 11.9965 0C5.37101 0 0 5.37258 0 12C0 18.6274 5.37101 24 11.9965 24C18.6219 24 23.9929 18.6274 23.9929 12Z" fill="#969696"/>
<path d="M19.5503 9.5134C19.4559 8.60187 19.2527 7.59422 18.505 7.06467C17.9259 6.65402 17.1647 6.63883 16.454 6.63968C14.9519 6.63968 13.4488 6.64221 11.9466 6.64305C10.5018 6.64474 9.05688 6.64558 7.61201 6.64727C7.00844 6.64727 6.42172 6.60089 5.86114 6.86229C5.3798 7.08659 5.00298 7.51327 4.77622 7.98801C4.46179 8.64825 4.39604 9.3962 4.35811 10.1264C4.28814 11.4562 4.29573 12.7894 4.37918 14.1183C4.44072 15.088 4.59667 16.1597 5.34608 16.7778C6.01035 17.3251 6.94774 17.3521 7.80927 17.3529C10.5439 17.3554 13.2794 17.358 16.0149 17.3597C16.3655 17.3605 16.7314 17.3538 17.0888 17.315C17.7919 17.2391 18.462 17.0375 18.9139 16.5164C19.3699 15.9911 19.4871 15.26 19.5562 14.5677C19.7248 12.888 19.7231 11.1923 19.5503 9.5134ZM10.3652 14.3544V9.64495L14.4419 11.9992L10.3652 14.3544Z" fill="#1B435D"/>
</svg>
