<svg width="24" height="24" viewBox="0 0 24 24" fill="none" xmlns="http://www.w3.org/2000/svg">
<path d="M12.0238 0L11.9691 0C5.35877 0 0 5.36035 0 11.9727L0 12.0273C0 18.6397 5.35877 24 11.9691 24H12.0238C18.6342 24 23.9929 18.6397 23.9929 12.0273V11.9727C23.9929 5.36035 18.6342 0 12.0238 0Z" fill="#969696"/>
<path d="M15.7089 4.88281H8.28485C6.23382 4.88281 4.56525 6.55187 4.56525 8.60351L4.56525 15.3975C4.56525 17.4491 6.23382 19.1182 8.28485 19.1182H15.7089C17.76 19.1182 19.4285 17.4491 19.4285 15.3975V8.60351C19.4285 6.55187 17.76 4.88281 15.7089 4.88281ZM5.87741 8.60351C5.87741 7.27583 6.95756 6.19536 8.28485 6.19536H15.7089C17.0362 6.19536 18.1164 7.27583 18.1164 8.60351V15.3975C18.1164 16.7252 17.0362 17.8056 15.7089 17.8056H8.28485C6.95756 17.8056 5.87741 16.7252 5.87741 15.3975L5.87741 8.60351Z" fill="#1B435D"/>
<path d="M11.997 15.4608C13.9043 15.4608 15.4569 13.9086 15.4569 11.9999C15.4569 10.0912 13.9052 8.53906 11.997 8.53906C10.0889 8.53906 8.53717 10.0912 8.53717 11.9999C8.53717 13.9086 10.0889 15.4608 11.997 15.4608ZM11.997 9.85245C13.1814 9.85245 14.1447 10.816 14.1447 12.0008C14.1447 13.1855 13.1814 14.1491 11.997 14.1491C10.8126 14.1491 9.84933 13.1855 9.84933 12.0008C9.84933 10.816 10.8126 9.85245 11.997 9.85245Z" fill="#1B435D"/>
<path d="M15.7772 9.09789C16.2908 9.09789 16.7095 8.67999 16.7095 8.1654C16.7095 7.65081 16.2917 7.23291 15.7772 7.23291C15.2628 7.23291 14.845 7.65081 14.845 8.1654C14.845 8.67999 15.2628 9.09789 15.7772 9.09789Z" fill="#1B435D"/>
</svg>
