<svg width="24" height="24" viewBox="0 0 24 24" fill="none" xmlns="http://www.w3.org/2000/svg">
<path d="M23.9921 12.0004C23.9921 18.0612 19.5008 23.0717 13.6663 23.8848C13.1208 23.9605 12.5626 24 11.996 24C11.3421 24 10.6999 23.9479 10.0745 23.847C4.36266 22.9271 0 17.9729 0 12.0004C0 5.37294 5.37136 0 11.9969 0C18.6224 0 23.9938 5.37294 23.9938 12.0004H23.9921Z" fill="#969696"/>
<path d="M14.2547 9.57216V12.1863H17.4876L16.9757 15.7077H14.2547V23.821C13.7091 23.8967 13.151 23.9362 12.5844 23.9362C11.9305 23.9362 11.2882 23.884 10.6628 23.7831V15.7077H7.68127V12.1863H10.6628V8.98778C10.6628 7.00341 12.2709 5.39404 14.2555 5.39404V5.39573C14.2614 5.39573 14.2664 5.39404 14.2723 5.39404H17.4884V8.43956H15.387C14.7624 8.43956 14.2555 8.94658 14.2555 9.57132L14.2547 9.57216Z" fill="#1B435D"/>
</svg>
