<svg width="4" height="2" viewBox="0 0 4 2" fill="none" xmlns="http://www.w3.org/2000/svg">
<mask id="path-1-inside-1_0_332" fill="white">
<path fill-rule="evenodd" clip-rule="evenodd" d="M3 2H4C4 0.895431 3.10457 0 2 0C0.895431 0 0 0.895431 0 2H1C1 1.44772 1.44772 1 2 1C2.55228 1 3 1.44772 3 2Z"/>
</mask>
<path fill-rule="evenodd" clip-rule="evenodd" d="M3 2H4C4 0.895431 3.10457 0 2 0C0.895431 0 0 0.895431 0 2H1C1 1.44772 1.44772 1 2 1C2.55228 1 3 1.44772 3 2Z" fill="#D9D9D9"/>
<path d="M3 2H2V3H3V2ZM4 2V3H5V2H4ZM0 2H-1V3H0V2ZM1 2V3H2V2H1ZM3 3H4V1H3V3ZM5 2C5 0.343146 3.65685 -1 2 -1V1C2.55228 1 3 1.44772 3 2H5ZM2 -1C0.343146 -1 -1 0.343146 -1 2H1C1 1.44772 1.44772 1 2 1V-1ZM0 3H1V1H0V3ZM2 0C0.895431 0 0 0.895431 0 2H2V0ZM4 2C4 0.895431 3.10457 0 2 0V2H4Z" fill="black" mask="url(#path-1-inside-1_0_332)"/>
</svg>
