<svg width="42" height="19" viewBox="0 0 42 19" fill="none" xmlns="http://www.w3.org/2000/svg">
<path d="M2.21246 1.02466C5.53475 8.61848 29.0462 22.6361 38.1106 16.2488C40.7419 14.0925 42.1403 10.3944 41.4865 4.7066C42.1817 10.755 40.7661 14.3775 38.1106 16.2488C28.9602 23.7471 4.89921 12.6002 0.371488 1.63832L1.90563 0.411002C2.00791 0.513279 2.21246 0.779197 2.21246 1.02466Z" fill="#FADC9D"/>
<path d="M41.4865 4.7066C44.5548 31.4007 6.50806 10.8432 2.21246 1.02466C2.21246 0.779197 2.00791 0.513279 1.90563 0.411002L0.371488 1.63832C6.20123 15.7524 44.4137 30.1734 41.4865 4.7066ZM41.4865 4.7066C41.4865 3.78612 41.057 2.00651 39.3387 2.25197C37.1909 2.5588 36.5773 4.09295 36.5773 4.7066C36.5773 5.01343 36.6386 5.56572 36.8841 5.32026C36.9902 5.21416 37.0596 5.18144 37.105 5.17135C37.1321 5.16533 37.1506 5.1779 37.1633 5.18833C37.1909 5.21099 37.1909 5.32026 37.1909 5.01343" stroke="#FADC9D" stroke-width="0.6"/>
</svg>
