<svg width="32" height="32" viewBox="0 0 32 32" fill="none" xmlns="http://www.w3.org/2000/svg">
<path d="M0 32V30.2222H3.55556V0H21.3333V4H27.5556V30.2222H32V32H26V5H21.3333V32H0ZM14.2222 17.7778C14.7259 17.7778 15.1481 17.6074 15.4889 17.2667C15.8296 16.9259 16 16.5037 16 16C16 15.4963 15.8296 15.0741 15.4889 14.7333C15.1481 14.3926 14.7259 14.2222 14.2222 14.2222C13.7185 14.2222 13.2963 14.3926 12.9556 14.7333C12.6148 15.0741 12.4444 15.4963 12.4444 16C12.4444 16.5037 12.6148 16.9259 12.9556 17.2667C13.2963 17.6074 13.7185 17.7778 14.2222 17.7778ZM5 30.2222L20 30.2851V1H5V30.2222Z" fill="#1F1F1F"/>
</svg>
