<svg width="12" height="9" viewBox="0 0 12 9" fill="none" xmlns="http://www.w3.org/2000/svg">
<path d="M1.8 8.7L1.035 3.885C1.015 3.885 0.9925 3.8875 0.9675 3.8925C0.9425 3.8975 0.92 3.9 0.9 3.9C0.65 3.9 0.4375 3.8125 0.2625 3.6375C0.0875 3.4625 0 3.25 0 3C0 2.75 0.0875 2.5375 0.2625 2.3625C0.4375 2.1875 0.65 2.1 0.9 2.1C1.15 2.1 1.3625 2.1875 1.5375 2.3625C1.7125 2.5375 1.8 2.75 1.8 3C1.8 3.07 1.7925 3.135 1.7775 3.195C1.7625 3.255 1.745 3.31 1.725 3.36L3.6 4.2L5.475 1.635C5.365 1.555 5.275 1.45 5.205 1.32C5.135 1.19 5.1 1.05 5.1 0.9C5.1 0.65 5.1875 0.4375 5.3625 0.2625C5.5375 0.0875 5.75 0 6 0C6.25 0 6.4625 0.0875 6.6375 0.2625C6.8125 0.4375 6.9 0.65 6.9 0.9C6.9 1.05 6.865 1.19 6.795 1.32C6.725 1.45 6.635 1.555 6.525 1.635L8.4 4.2L10.275 3.36C10.255 3.31 10.2375 3.255 10.2225 3.195C10.2075 3.135 10.2 3.07 10.2 3C10.2 2.75 10.2875 2.5375 10.4625 2.3625C10.6375 2.1875 10.85 2.1 11.1 2.1C11.35 2.1 11.5625 2.1875 11.7375 2.3625C11.9125 2.5375 12 2.75 12 3C12 3.25 11.9125 3.4625 11.7375 3.6375C11.5625 3.8125 11.35 3.9 11.1 3.9C11.08 3.9 11.0575 3.8975 11.0325 3.8925C11.0075 3.8875 10.985 3.885 10.965 3.885L10.2 8.7C6.96316 7.53543 5.05861 7.57267 1.8 8.7ZM2.43 7.8C5.217 7.00535 6.78002 7.01876 9.6 7.8L10.2 4.2L8.1 5.1L6 2.4L3.9 5.1L1.8 4.2L2.43 7.8Z" fill="white"/>
</svg>
